<?xml version="1.0" encoding="utf-8"?>
<!-- Generator: Adobe Illustrator 21.0.0, SVG Export Plug-In . SVG Version: 6.00 Build 0)  -->
<svg version="1.1"
	 id="svg8977" inkscape:version="0.43" sodipodi:docbase="C:\Files\Pics\Misc Etc" sodipodi:docname="Penrose_hexagon.svg" sodipodi:version="0.32" xmlns:cc="http://web.resource.org/cc/" xmlns:dc="http://purl.org/dc/elements/1.1/" xmlns:inkscape="http://www.inkscape.org/namespaces/inkscape" xmlns:rdf="http://www.w3.org/1999/02/22-rdf-syntax-ns#" xmlns:sodipodi="http://inkscape.sourceforge.net/DTD/sodipodi-0.dtd" xmlns:svg="http://www.w3.org/2000/svg"
	 xmlns="http://www.w3.org/2000/svg" xmlns:xlink="http://www.w3.org/1999/xlink" x="0px" y="0px" viewBox="0 0 400 400"
	 style="enable-background:new 0 0 400 400;" xml:space="preserve">
<style type="text/css">
	.st0{fill:#A3A947;stroke:#000000;stroke-width:1;}
	.st1{fill:#EEBA2F;stroke:#000000;stroke-width:1;}
	.st2{fill:#009889;stroke:#000000;stroke-width:1;}
	.st3{fill:#3D77CE;stroke:#000000;stroke-width:1;}
	.st4{fill:#CF1936;stroke:#000000;stroke-width:1;}
	.st5{fill:#F95A31;stroke:#000000;stroke-width:1;}
</style>
<sodipodi:namedview  bordercolor="#666666" borderopacity="1.0" id="base" inkscape:current-layer="layer1" inkscape:cx="250" inkscape:cy="201.23697" inkscape:document-units="px" inkscape:pageopacity="0.0" inkscape:pageshadow="2" inkscape:window-height="712" inkscape:window-width="1024" inkscape:window-x="-4" inkscape:window-y="-4" inkscape:zoom="1.09" pagecolor="#ffffff">
	</sodipodi:namedview>
<g id="layer1" inkscape:groupmode="layer" inkscape:label="Layer 1">
	<path id="path9106" class="st0" d="M85.6,63.8L25.5,185.7l67.4,128.9l30.4,1.1L51.7,174.1L113.1,43L85.6,63.8z"/>
	<path id="path9108" sodipodi:nodetypes="ccccccc" class="st1" d="M51.9,174.3L114.2,42h164.1l34.6,20.8l-177.7-0.4L64.7,200.2
		L51.9,174.3z"/>
	<path id="path9110" sodipodi:nodetypes="ccccccc" class="st2" d="M123.9,86.3l11.7-23.2L313.7,64l60.8,115.7l-1.1,44.8L302.3,86.1
		L123.9,86.3z"/>
	<path id="path9112" sodipodi:nodetypes="ccccccc" class="st3" d="M273.6,86.9l28.2,0.2l72,137.4l-53.3,109.8L283.9,357l61.9-129
		L273.6,86.9z"/>
	<path id="path9114" sodipodi:nodetypes="ccccccc" class="st4" d="M332.7,202.7l-69.6,135.8H81.2l37.6,19.9l164.7-0.9l62.2-129.4
		L332.7,202.7z"/>
	<path id="path9116" sodipodi:nodetypes="ccccscc" class="st5" d="M274.7,316.3l-12.3,21.6L81.9,339L26.4,232.2
		c0,0-0.5-46.8-0.9-46.4c-0.4,0.4,67.8,129.6,67.8,129.6L274.7,316.3z"/>
</g>
</svg>
