<?xml version="1.0" encoding="UTF-8" standalone="no"?>
<!DOCTYPE svg PUBLIC "-//W3C//DTD SVG 1.1//EN" "http://www.w3.org/Graphics/SVG/1.1/DTD/svg11.dtd">
<svg xmlns="http://www.w3.org/2000/svg" version="1.1" viewBox="0 0 1514 1384">
<g stroke-width="2.00" fill="none" stroke-linecap="butt">
<path stroke="#fddd90" vector-effect="non-scaling-stroke" d="
  M 537.73 26.42
  C 436.47 201.41 335.62 376.21 234.40 551.67
  A 0.91 0.91 90.0 0 0 234.40 552.59
  L 306.33 677.19
  Q 306.81 678.01 307.28 677.19
  Q 457.62 416.77 608.09 156.31
  C 609.17 154.43 611.64 152.00 613.56 152.00
  Q 912.50 152.00 1210.10 152.00
  Q 1212.28 152.00 1210.69 150.52
  Q 1155.28 98.97 1101.00 48.70
  C 1088.74 37.35 1082.37 30.78 1068.76 27.45
  Q 1062.83 26.00 1050.11 26.00
  Q 794.32 26.02 538.48 25.98
  A 0.87 0.86 -75.0 0 0 537.73 26.42"
/>
<path stroke="#d1d6a3" vector-effect="non-scaling-stroke" d="
  M 520.54 1078.31
  Q 521.32 1078.31 520.93 1077.64
  Q 370.79 817.59 220.56 557.44
  C 217.47 552.08 218.73 549.89 221.53 545.04
  Q 369.77 288.39 517.98 31.70
  Q 518.33 31.10 517.67 31.30
  Q 441.65 54.68 365.62 78.16
  Q 354.58 81.57 349.47 84.62
  C 336.76 92.21 332.68 100.71 323.66 116.33
  Q 197.98 333.96 72.27 551.65
  A 0.87 0.86 44.7 0 0 72.28 552.51
  L 375.42 1077.55
  A 1.45 1.44 74.8 0 0 376.67 1078.27
  L 520.54 1078.31"
/>
<path stroke="#8bd7cb" vector-effect="non-scaling-stroke" d="
  M 1153.77 293.57
  Q 1155.13 294.57 1155.97 296.03
  L 1454.16 812.43
  Q 1454.61 813.20 1454.81 812.33
  Q 1473.11 732.12 1491.31 651.91
  Q 1495.66 632.70 1486.21 616.29
  Q 1441.78 539.14 1226.72 166.94
  A 0.87 0.84 -14.0 0 0 1225.97 166.51
  L 619.53 166.50
  A 0.87 0.86 15.0 0 0 618.78 166.93
  L 546.57 291.81
  Q 546.33 292.24 546.82 292.24
  Q 772.66 292.26 998.50 292.18
  Q 998.73 292.18 998.94 292.31
  A 1.39 0.50 40.5 0 0 999.68 292.59
  Q 1075.33 292.06 1150.99 292.53
  C 1152.07 292.54 1153.01 293.01 1153.77 293.57"
/>
<path stroke="#a6bbdd" vector-effect="non-scaling-stroke" d="
  M 1028.07 1345.99
  Q 1036.72 1343.44 1045.24 1340.47
  C 1046.26 1340.12 1048.06 1340.33 1049.45 1339.85
  Q 1064.84 1334.56 1080.43 1329.90
  Q 1081.61 1329.55 1082.26 1329.50
  Q 1082.97 1329.45 1083.23 1329.36
  Q 1099.16 1323.74 1115.41 1319.14
  C 1124.13 1316.67 1132.31 1313.82 1140.78 1311.14
  C 1142.39 1310.63 1144.07 1310.56 1145.79 1310.00
  C 1159.33 1305.59 1171.98 1302.75 1182.24 1292.18
  Q 1186.47 1287.83 1193.06 1276.43
  Q 1321.07 1054.83 1449.00 833.19
  A 0.88 0.86 45.6 0 0 1449.00 832.32
  L 1145.68 307.05
  A 1.11 1.09 74.7 0 0 1144.73 306.50
  L 1000.70 306.50
  Q 999.89 306.50 1000.29 307.21
  Q 1150.57 567.45 1300.82 827.69
  C 1303.21 831.83 1303.04 834.08 1300.57 838.35
  Q 1151.91 1095.80 1003.25 1353.27
  Q 1002.91 1353.86 1003.56 1353.65
  C 1005.93 1352.91 1027.55 1346.66 1027.75 1346.31
  A 0.64 0.23 -65.1 0 1 1028.07 1345.99"
/>
<path stroke="#f6b4a1" vector-effect="non-scaling-stroke" d="
  M 295.27 1218.56
  L 901.77 1218.53
  A 0.87 0.86 15.0 0 0 902.52 1218.10
  L 974.67 1093.20
  Q 975.08 1092.50 974.27 1092.50
  L 370.73 1092.50
  Q 367.93 1092.50 366.33 1090.19
  Q 364.36 1087.33 362.64 1084.34
  Q 214.85 828.28 67.06 572.32
  Q 66.62 571.58 66.43 572.42
  Q 48.97 648.87 31.52 725.31
  Q 28.41 738.91 28.57 745.02
  Q 28.90 758.06 36.05 770.45
  Q 165.23 994.25 294.56 1218.15
  A 0.83 0.82 74.6 0 0 295.27 1218.56"
/>
<path stroke="#f38c9b" vector-effect="non-scaling-stroke" d="
  M 310.06 1233.83
  Q 368.06 1287.88 424.36 1340.00
  C 437.13 1351.82 447.35 1358.99 464.06 1358.99
  Q 723.41 1359.01 982.87 1359.00
  A 0.73 0.72 -75.0 0 0 983.50 1358.63
  Q 1131.76 1101.88 1280.06 845.06
  Q 1284.85 836.76 1286.78 832.97
  A 0.93 0.91 -46.8 0 0 1286.76 832.09
  L 1214.84 707.59
  A 0.46 0.46 -45.0 0 0 1214.04 707.59
  Q 1064.70 966.23 915.33 1224.88
  C 912.70 1229.44 911.05 1233.00 906.44 1233.00
  Q 607.97 1233.01 310.39 1232.99
  Q 309.16 1232.99 310.06 1233.83"
/>
</g>
<path fill="#ffffff" d="
  M 285.77 1230.97
  Q 284.87 1230.14 284.25 1229.07
  Q 153.52 1002.71 23.09 776.67
  Q 10.02 754.04 15.95 728.29
  Q 36.45 639.19 56.49 551.51
  Q 56.97 549.42 58.05 547.56
  Q 186.86 324.47 315.51 101.69
  Q 322.30 89.93 326.57 85.08
  C 338.97 70.99 351.23 67.64 370.81 61.58
  Q 449.95 37.07 529.16 12.77
  Q 532.50 11.75 535.99 11.75
  Q 795.06 11.74 1054.12 11.76
  Q 1064.66 11.76 1070.64 13.08
  C 1087.72 16.87 1096.55 24.91 1110.51 37.86
  Q 1172.11 95.00 1233.69 152.16
  Q 1236.24 154.53 1237.98 157.54
  Q 1367.85 382.42 1497.69 607.31
  Q 1508.96 626.83 1506.68 647.85
  Q 1506.27 651.68 1502.67 667.43
  Q 1483.59 750.97 1464.51 834.50
  Q 1464.19 835.91 1462.19 839.39
  Q 1333.22 1062.53 1204.29 1285.71
  C 1195.92 1300.20 1186.85 1309.93 1171.87 1316.38
  Q 1168.79 1317.71 1152.87 1322.61
  Q 1072.85 1347.29 992.83 1371.96
  Q 989.50 1372.99 986.01 1372.99
  Q 725.85 1373.02 465.68 1372.99
  Q 455.82 1372.99 450.07 1371.69
  C 433.62 1367.96 425.04 1360.24 411.46 1347.66
  Q 349.08 1289.86 285.77 1230.97
  Z
  M 537.73 26.42
  C 436.47 201.41 335.62 376.21 234.40 551.67
  A 0.91 0.91 90.0 0 0 234.40 552.59
  L 306.33 677.19
  Q 306.81 678.01 307.28 677.19
  Q 457.62 416.77 608.09 156.31
  C 609.17 154.43 611.64 152.00 613.56 152.00
  Q 912.50 152.00 1210.10 152.00
  Q 1212.28 152.00 1210.69 150.52
  Q 1155.28 98.97 1101.00 48.70
  C 1088.74 37.35 1082.37 30.78 1068.76 27.45
  Q 1062.83 26.00 1050.11 26.00
  Q 794.32 26.02 538.48 25.98
  A 0.87 0.86 -75.0 0 0 537.73 26.42
  Z
  M 520.54 1078.31
  Q 521.32 1078.31 520.93 1077.64
  Q 370.79 817.59 220.56 557.44
  C 217.47 552.08 218.73 549.89 221.53 545.04
  Q 369.77 288.39 517.98 31.70
  Q 518.33 31.10 517.67 31.30
  Q 441.65 54.68 365.62 78.16
  Q 354.58 81.57 349.47 84.62
  C 336.76 92.21 332.68 100.71 323.66 116.33
  Q 197.98 333.96 72.27 551.65
  A 0.87 0.86 44.7 0 0 72.28 552.51
  L 375.42 1077.55
  A 1.45 1.44 74.8 0 0 376.67 1078.27
  L 520.54 1078.31
  Z
  M 1153.77 293.57
  Q 1155.13 294.57 1155.97 296.03
  L 1454.16 812.43
  Q 1454.61 813.20 1454.81 812.33
  Q 1473.11 732.12 1491.31 651.91
  Q 1495.66 632.70 1486.21 616.29
  Q 1441.78 539.14 1226.72 166.94
  A 0.87 0.84 -14.0 0 0 1225.97 166.51
  L 619.53 166.50
  A 0.87 0.86 15.0 0 0 618.78 166.93
  L 546.57 291.81
  Q 546.33 292.24 546.82 292.24
  Q 772.66 292.26 998.50 292.18
  Q 998.73 292.18 998.94 292.31
  A 1.39 0.50 40.5 0 0 999.68 292.59
  Q 1075.33 292.06 1150.99 292.53
  C 1152.07 292.54 1153.01 293.01 1153.77 293.57
  Z
  M 982.90 1078.31
  A 0.79 0.76 14.3 0 0 983.58 1077.92
  L 1205.82 693.04
  A 1.16 1.16 45.0 0 0 1205.82 691.90
  L 983.50 306.94
  A 0.87 0.86 75.0 0 0 982.75 306.50
  L 538.73 306.50
  A 1.34 1.33 -74.6 0 0 537.58 307.16
  L 315.36 691.99
  A 0.96 0.94 -45.6 0 0 315.36 692.92
  L 537.57 1077.79
  A 0.87 0.86 -15.0 0 0 538.32 1078.22
  L 982.90 1078.31
  Z
  M 1028.07 1345.99
  Q 1036.72 1343.44 1045.24 1340.47
  C 1046.26 1340.12 1048.06 1340.33 1049.45 1339.85
  Q 1064.84 1334.56 1080.43 1329.90
  Q 1081.61 1329.55 1082.26 1329.50
  Q 1082.97 1329.45 1083.23 1329.36
  Q 1099.16 1323.74 1115.41 1319.14
  C 1124.13 1316.67 1132.31 1313.82 1140.78 1311.14
  C 1142.39 1310.63 1144.07 1310.56 1145.79 1310.00
  C 1159.33 1305.59 1171.98 1302.75 1182.24 1292.18
  Q 1186.47 1287.83 1193.06 1276.43
  Q 1321.07 1054.83 1449.00 833.19
  A 0.88 0.86 45.6 0 0 1449.00 832.32
  L 1145.68 307.05
  A 1.11 1.09 74.7 0 0 1144.73 306.50
  L 1000.70 306.50
  Q 999.89 306.50 1000.29 307.21
  Q 1150.57 567.45 1300.82 827.69
  C 1303.21 831.83 1303.04 834.08 1300.57 838.35
  Q 1151.91 1095.80 1003.25 1353.27
  Q 1002.91 1353.86 1003.56 1353.65
  C 1005.93 1352.91 1027.55 1346.66 1027.75 1346.31
  A 0.64 0.23 -65.1 0 1 1028.07 1345.99
  Z
  M 295.27 1218.56
  L 901.77 1218.53
  A 0.87 0.86 15.0 0 0 902.52 1218.10
  L 974.67 1093.20
  Q 975.08 1092.50 974.27 1092.50
  L 370.73 1092.50
  Q 367.93 1092.50 366.33 1090.19
  Q 364.36 1087.33 362.64 1084.34
  Q 214.85 828.28 67.06 572.32
  Q 66.62 571.58 66.43 572.42
  Q 48.97 648.87 31.52 725.31
  Q 28.41 738.91 28.57 745.02
  Q 28.90 758.06 36.05 770.45
  Q 165.23 994.25 294.56 1218.15
  A 0.83 0.82 74.6 0 0 295.27 1218.56
  Z
  M 310.06 1233.83
  Q 368.06 1287.88 424.36 1340.00
  C 437.13 1351.82 447.35 1358.99 464.06 1358.99
  Q 723.41 1359.01 982.87 1359.00
  A 0.73 0.72 -75.0 0 0 983.50 1358.63
  Q 1131.76 1101.88 1280.06 845.06
  Q 1284.85 836.76 1286.78 832.97
  A 0.93 0.91 -46.8 0 0 1286.76 832.09
  L 1214.84 707.59
  A 0.46 0.46 -45.0 0 0 1214.04 707.59
  Q 1064.70 966.23 915.33 1224.88
  C 912.70 1229.44 911.05 1233.00 906.44 1233.00
  Q 607.97 1233.01 310.39 1232.99
  Q 309.16 1232.99 310.06 1233.83
  Z"
/>
<path fill="#fbba21" d="
  M 234.40 551.67
  C 335.62 376.21 436.47 201.41 537.73 26.42
  A 0.87 0.86 -75.0 0 1 538.48 25.98
  Q 794.32 26.02 1050.11 26.00
  Q 1062.83 26.00 1068.76 27.45
  C 1082.37 30.78 1088.74 37.35 1101.00 48.70
  Q 1155.28 98.97 1210.69 150.52
  Q 1212.28 152.00 1210.10 152.00
  Q 912.50 152.00 613.56 152.00
  C 611.64 152.00 609.17 154.43 608.09 156.31
  Q 457.62 416.77 307.28 677.19
  Q 306.81 678.01 306.33 677.19
  L 234.40 552.59
  A 0.91 0.91 -90.0 0 1 234.40 551.67
  Z"
/>
<path fill="#a2ad46" d="
  M 520.54 1078.31
  L 376.67 1078.27
  A 1.45 1.44 74.8 0 1 375.42 1077.55
  L 72.28 552.51
  A 0.87 0.86 44.7 0 1 72.27 551.65
  Q 197.98 333.96 323.66 116.33
  C 332.68 100.71 336.76 92.21 349.47 84.62
  Q 354.58 81.57 365.62 78.16
  Q 441.65 54.68 517.67 31.30
  Q 518.33 31.10 517.98 31.70
  Q 369.77 288.39 221.53 545.04
  C 218.73 549.89 217.47 552.08 220.56 557.44
  Q 370.79 817.59 520.93 1077.64
  Q 521.32 1078.31 520.54 1078.31
  Z"
/>
<path fill="#16af97" d="
  M 1153.77 293.57
  C 1153.01 293.01 1152.07 292.54 1150.99 292.53
  Q 1075.33 292.06 999.68 292.59
  A 1.39 0.50 40.5 0 1 998.94 292.31
  Q 998.73 292.18 998.50 292.18
  Q 772.66 292.26 546.82 292.24
  Q 546.33 292.24 546.57 291.81
  L 618.78 166.93
  A 0.87 0.86 15.0 0 1 619.53 166.50
  L 1225.97 166.51
  A 0.87 0.84 -14.0 0 1 1226.72 166.94
  Q 1441.78 539.14 1486.21 616.29
  Q 1495.66 632.70 1491.31 651.91
  Q 1473.11 732.12 1454.81 812.33
  Q 1454.61 813.20 1454.16 812.43
  L 1155.97 296.03
  Q 1155.13 294.57 1153.77 293.57
  Z"
/>
<path fill="#4c76ba" d="
  M 1027.75 1346.31
  C 1027.55 1346.66 1005.93 1352.91 1003.56 1353.65
  Q 1002.91 1353.86 1003.25 1353.27
  Q 1151.91 1095.80 1300.57 838.35
  C 1303.04 834.08 1303.21 831.83 1300.82 827.69
  Q 1150.57 567.45 1000.29 307.21
  Q 999.89 306.50 1000.70 306.50
  L 1144.73 306.50
  A 1.11 1.09 74.7 0 1 1145.68 307.05
  L 1449.00 832.32
  A 0.88 0.86 45.6 0 1 1449.00 833.19
  Q 1321.07 1054.83 1193.06 1276.43
  Q 1186.47 1287.83 1182.24 1292.18
  C 1171.98 1302.75 1159.33 1305.59 1145.79 1310.00
  C 1144.07 1310.56 1142.39 1310.63 1140.78 1311.14
  C 1132.31 1313.82 1124.13 1316.67 1115.41 1319.14
  Q 1099.16 1323.74 1083.23 1329.36
  Q 1082.97 1329.45 1082.26 1329.50
  Q 1081.61 1329.55 1080.43 1329.90
  Q 1064.84 1334.56 1049.45 1339.85
  C 1048.06 1340.33 1046.26 1340.12 1045.24 1340.47
  Q 1036.72 1343.44 1028.07 1345.99
  A 0.64 0.23 -65.1 0 0 1027.75 1346.31
  Z"
/>
<path fill="#ed6842" d="
  M 295.27 1218.56
  A 0.83 0.82 74.6 0 1 294.56 1218.15
  Q 165.23 994.25 36.05 770.45
  Q 28.90 758.06 28.57 745.02
  Q 28.41 738.91 31.52 725.31
  Q 48.97 648.87 66.43 572.42
  Q 66.62 571.58 67.06 572.32
  Q 214.85 828.28 362.64 1084.34
  Q 364.36 1087.33 366.33 1090.19
  Q 367.93 1092.50 370.73 1092.50
  L 974.27 1092.50
  Q 975.08 1092.50 974.67 1093.20
  L 902.52 1218.10
  A 0.87 0.86 15.0 0 1 901.77 1218.53
  L 295.27 1218.56
  Z"
/>
<path fill="#e61937" d="
  M 310.06 1233.83
  Q 309.16 1232.99 310.39 1232.99
  Q 607.97 1233.01 906.44 1233.00
  C 911.05 1233.00 912.70 1229.44 915.33 1224.88
  Q 1064.70 966.23 1214.04 707.59
  A 0.46 0.46 0.0 0 1 1214.84 707.59
  L 1286.76 832.09
  A 0.93 0.91 -46.8 0 1 1286.78 832.97
  Q 1284.85 836.76 1280.06 845.06
  Q 1131.76 1101.88 983.50 1358.63
  A 0.73 0.72 -75.0 0 1 982.87 1359.00
  Q 723.41 1359.01 464.06 1358.99
  C 447.35 1358.99 437.13 1351.82 424.36 1340.00
  Q 368.06 1287.88 310.06 1233.83
  Z"
/>
</svg>
