<svg xmlns="http://www.w3.org/2000/svg" id="onteon" x="0" y="0" version="1.1" viewBox="0 0 250 80" xml:space="preserve"><style>.st2{fill:#14213d}</style><path fill="none" d="M0 0h250v80H0z"/><path fill="#00a0df" d="M33.4 6c-2.5 0-4.6 2.1-4.6 4.6v21.3c0 2.5 2.1 4.6 4.6 4.6s4.6-2.1 4.6-4.6V10.6C38 8.1 36 6 33.4 6z"/><path d="M60.1 24l-8.8-5.1c-2-1.1-4.5-.5-5.6 1.5s-.5 4.5 1.5 5.6l5.3 3c.9.5 1.4 1.4 1.4 2.4v21.9l-19 11c-.9.5-1.9.5-2.8 0l-19-11V31.5c0-1 .5-1.9 1.4-2.4l5.3-3c2-1.1 2.7-3.7 1.5-5.6-1.1-2-3.7-2.7-5.6-1.5l-8.9 5c-1.2.7-2 2-2 3.4v28.5c0 1.4.7 2.7 2 3.4l24.7 14.3c1.2.7 2.7.7 3.9 0l24.7-14.3c1.2-.7 2-2 2-3.4V27.4c.1-1.4-.7-2.8-2-3.4zM105.3 39.3c-.7-1.7-1.6-3.2-2.7-4.4-1.2-1.2-2.5-2.1-4.1-2.8-1.6-.7-3.3-1-5.2-1s-3.6.3-5.2 1-2.9 1.6-4.1 2.8c-1.1 1.2-2 2.7-2.7 4.4s-1 3.6-1 5.7.4 4 1 5.7c.7 1.7 1.6 3.2 2.7 4.4 1.2 1.2 2.5 2.1 4.1 2.8 1.6.7 3.4 1 5.3 1s3.7-.3 5.3-1c1.6-.6 3-1.6 4.1-2.8s2-2.7 2.6-4.4c.6-1.7.9-3.6.9-5.7 0-2.2-.2-4-1-5.7zm-8 11.2c-.9 1.3-2.2 2-3.9 2-1.7 0-3.1-.6-4-2-.9-1.4-1.4-3.2-1.4-5.5s.5-4.1 1.4-5.4c1-1.3 2.3-2 4-2 1.7 0 3 .7 3.9 2s1.4 3.1 1.4 5.4c.1 2.3-.4 4-1.4 5.5zM112.2 32.8c1.3-.4 2.9-.7 4.9-1s4.1-.5 6.3-.5 4.1.3 5.6.9c1.5.6 2.7 1.4 3.5 2.5.9 1.1 1.5 2.3 1.9 3.8.4 1.5.6 3.1.6 4.9v14.9h-7.5v-14c0-2.4-.3-4.1-1-5.1-.6-1-1.8-1.5-3.6-1.5-.5 0-1.1 0-1.7.1-.6 0-1.1.1-1.6.2v20.3h-7.5l.1-25.5zM141.4 25.2l7.5-1.2v7.8h9V38h-9v9.3c0 1.6.3 2.8.8 3.8.6.9 1.7 1.4 3.3 1.4.8 0 1.6-.1 2.5-.2.9-.2 1.6-.4 2.3-.6l1.1 5.8c-.9.4-1.9.7-3 1s-2.5.4-4.1.4c-2 0-3.7-.3-5.1-.8-1.3-.6-2.4-1.3-3.2-2.3-.8-1-1.4-2.2-1.7-3.6-.3-1.4-.5-3-.5-4.7V25.2h.1zM183.1 34.5c-2.2-2.3-5.2-3.4-8.9-3.4-1.6 0-3.2.3-4.7.9-1.5.6-2.8 1.5-4 2.7-1.1 1.2-2.1 2.6-2.8 4.4-.7 1.7-1.1 3.8-1.1 6.1 0 2 .3 3.8.8 5.5.6 1.6 1.4 3.1 2.6 4.3 1.2 1.2 2.6 2.2 4.4 2.9s3.8 1.1 6.2 1.1c.9 0 1.9-.1 2.8-.2.9-.1 1.8-.3 2.6-.4.8-.1 1.5-.3 2.2-.5s1.2-.4 1.6-.6l-1-6.1c-.8.3-1.9.6-3.2.9s-2.6.4-4 .4c-2.1 0-3.8-.5-5.1-1.4-1.3-.9-2-2.2-2.2-3.7h16.9c0-.4.1-.9.1-1.4.1-.5.1-1 .1-1.4 0-4.6-1.1-7.8-3.3-10.1zm-4 7.8v-.2h-10c.1-.7.3-1.3.5-1.9.2-.6.5-1.1.9-1.6.4-.4.9-.8 1.5-1.1s1.4-.4 2.2-.4c.9 0 1.6.2 2.2.5.6.3 1.1.7 1.5 1.2.4.5.7 1 .9 1.6.2.5.3 1.1.3 1.7v.2zM215.6 39.3c-.7-1.7-1.6-3.2-2.7-4.4-1.2-1.2-2.5-2.1-4.1-2.8s-3.3-1-5.2-1c-1.9 0-3.6.3-5.2 1s-2.9 1.6-4.1 2.8c-1.1 1.2-2 2.7-2.7 4.4s-1 3.6-1 5.7.4 4 1 5.7c.7 1.7 1.6 3.2 2.7 4.4 1.2 1.2 2.5 2.1 4.1 2.8 1.6.7 3.4 1 5.3 1s3.7-.3 5.3-1c1.6-.6 3-1.6 4.1-2.8 1.1-1.2 2-2.7 2.6-4.4.6-1.7.9-3.6.9-5.7 0-2.2-.2-4-1-5.7zm-8 11.2c-.9 1.3-2.2 2-3.9 2s-3.1-.6-4-2c-.9-1.4-1.4-3.2-1.4-5.5s.5-4.1 1.4-5.4c1-1.3 2.3-2 4-2s3 .7 3.9 2c.9 1.3 1.4 3.1 1.4 5.4.1 2.3-.4 4-1.4 5.5zM222.5 32.8c1.3-.4 2.9-.7 4.9-1s4.1-.5 6.3-.5 4.1.3 5.6.9c1.5.6 2.7 1.4 3.5 2.5.9 1.1 1.5 2.3 1.9 3.8.4 1.5.6 3.1.6 4.9v14.9h-7.5v-14c0-2.4-.3-4.1-1-5.1-.6-1-1.8-1.5-3.6-1.5-.5 0-1.1 0-1.7.1-.6 0-1.1.1-1.6.2v20.3h-7.5V32.8h.1z" class="st2"/></svg>